<svg width="64" height="64" viewBox="0 0 64 64" fill="none" xmlns="http://www.w3.org/2000/svg">
<path d="M62.75 26.0936H54.75C54.0596 26.0936 53.5 26.6534 53.5 27.3436V33.6561C53.5 34.3464 54.0596 34.9061 54.75 34.9061C55.4404 34.9061 56 34.3464 56 33.6561V28.5936H61.5V61.5H58.75H56V43.0311C56 42.3409 55.4404 41.7811 54.75 41.7811C54.0596 41.7811 53.5 42.3409 53.5 43.0311V61.5H51V35.625C51 34.9347 50.4404 34.375 49.75 34.375H41.75C41.0596 34.375 40.5 34.9347 40.5 35.625V61.5H38V44.375C38 43.6847 37.4404 43.125 36.75 43.125H28.75C28.0596 43.125 27.5 43.6847 27.5 44.375V61.5H25V51.5469C25 50.8566 24.4404 50.2969 23.75 50.2969H15.75C15.0596 50.2969 14.5 50.8566 14.5 51.5469V61.5H3.75C3.06075 61.5 2.5 60.9393 2.5 60.25V3.75C2.5 3.06075 3.06075 2.5 3.75 2.5H35.9969V10.7504C35.9969 12.8181 37.6791 14.5004 39.7469 14.5004H47.9969V29.875C47.9969 30.5653 48.5565 31.125 49.2469 31.125C49.9373 31.125 50.4969 30.5653 50.4969 29.875V13.2504C50.4969 12.9189 50.3651 12.601 50.1307 12.3665L38.1307 0.366125C37.8962 0.13175 37.5784 0 37.2469 0H3.75C1.68225 0 0 1.68225 0 3.75V60.25C0 62.3177 1.68225 64 3.75 64H62.75C63.4404 64 64 63.4403 64 62.75V27.3436C64 26.6534 63.4404 26.0936 62.75 26.0936ZM38.4969 4.26788L46.2293 12.0004H39.7469C39.0575 12.0004 38.4969 11.4396 38.4969 10.7504V4.26788ZM22.5 61.5H17V52.7969H22.5V61.5ZM35.5 61.5H30V45.625H35.5V61.5ZM48.5 61.5H43V36.875H48.5V61.5Z" fill="#4DC7CF"/>
<path d="M55.6338 37.2273C55.4013 36.9937 55.0788 36.8611 54.75 36.8611C54.4212 36.8611 54.0987 36.9937 53.8662 37.2273C53.6337 37.4598 53.5 37.7823 53.5 38.1111C53.5 38.4398 53.6337 38.7623 53.8662 38.9948C54.0987 39.2272 54.4212 39.3611 54.75 39.3611C55.0788 39.3611 55.4013 39.2273 55.6338 38.9948C55.8663 38.7623 56 38.4398 56 38.1111C56 37.7823 55.8663 37.4598 55.6338 37.2273Z" fill="#4DC7CF"/>
<path d="M18.1971 6.84106C17.5067 6.84106 16.9471 7.40081 16.9471 8.09106V10.3397C11.1932 10.9643 6.7002 15.8518 6.7002 21.7691C6.7002 28.1084 11.8577 33.2659 18.1971 33.2659C24.1143 33.2659 29.0018 28.7731 29.6264 23.0191H31.8749C32.5653 23.0191 33.1249 22.4593 33.1249 21.7691C33.1249 13.5377 26.4283 6.84106 18.1971 6.84106ZM18.1971 30.7658C13.2362 30.7658 9.20019 26.7298 9.20019 21.7689C9.20019 17.2323 12.5758 13.4691 16.9471 12.8587V21.7689C16.9471 22.4592 17.5067 23.0189 18.1971 23.0189H27.1073C26.4969 27.3902 22.7337 30.7658 18.1971 30.7658ZM19.4471 20.5191V20.5189V9.40344C25.3036 9.99119 29.9748 14.6626 30.5626 20.5191H19.4471Z" fill="#4DC7CF"/>
<path d="M31.875 36.7812H8C7.30963 36.7812 6.75 37.341 6.75 38.0312C6.75 38.7215 7.30963 39.2812 8 39.2812H31.875C32.5654 39.2812 33.125 38.7215 33.125 38.0312C33.125 37.341 32.5654 36.7812 31.875 36.7812Z" fill="#4DC7CF"/>
<path d="M16 42.8125H8C7.30963 42.8125 6.75 43.3723 6.75 44.0625C6.75 44.7527 7.30963 45.3125 8 45.3125H16C16.6904 45.3125 17.25 44.7527 17.25 44.0625C17.25 43.3723 16.6904 42.8125 16 42.8125Z" fill="#4DC7CF"/>
<path d="M23.1438 43.1787C22.9113 42.9462 22.5888 42.8125 22.26 42.8125C21.93 42.8125 21.6088 42.9461 21.3763 43.1787C21.1425 43.4112 21.01 43.7337 21.01 44.0625C21.01 44.3913 21.1425 44.7138 21.3763 44.9461C21.6088 45.1786 21.93 45.3125 22.26 45.3125C22.5888 45.3125 22.9113 45.1788 23.1438 44.9461C23.3763 44.7138 23.51 44.3913 23.51 44.0625C23.51 43.7337 23.3763 43.4112 23.1438 43.1787Z" fill="#4DC7CF"/>
</svg>
