<svg width="90" height="71" viewBox="0 0 90 71" fill="none" xmlns="http://www.w3.org/2000/svg">
<g clip-path="url(#clip0)">
<path opacity="0.34" d="M2.95646 43.836C2.95646 58.3902 12.3607 66.6749 22.8845 66.6749C32.5126 66.6749 40.5734 58.6141 40.5734 48.986C40.5734 39.3578 33.8561 32.8644 25.3475 32.8644C23.5562 32.8644 21.541 33.0883 20.8693 33.5362C22.8845 25.4754 31.1692 16.0711 38.3343 12.2647L26.0192 2.41261C12.1368 12.0408 2.95646 27.0428 2.95646 43.836ZM48.6342 43.836C48.6342 58.3902 57.8145 66.6749 68.3383 66.6749C78.1904 66.6749 86.0272 58.6141 86.0272 48.986C86.0272 39.3578 79.3099 32.8644 71.0252 32.8644C69.234 32.8644 67.2188 33.0883 66.547 33.5362C68.3383 25.4754 76.8469 16.0711 84.012 12.2647L71.4731 2.41261C57.5906 12.0408 48.6342 27.0428 48.6342 43.836Z" fill="#8CB9E7"/>
</g>
<defs>
<clipPath id="clip0">
<rect width="90" height="71" fill="white"/>
</clipPath>
</defs>
</svg>
