<svg width="64" height="64" viewBox="0 0 64 64" fill="none" xmlns="http://www.w3.org/2000/svg">
<g clip-path="url(#clip0)">
<path d="M31.1977 45.0005H19.7397C19.0494 45.0005 18.4897 45.5601 18.4897 46.2505C18.4897 46.9408 19.0494 47.5004 19.7397 47.5004H31.1977C31.888 47.5004 32.4476 46.9408 32.4476 46.2505C32.4476 45.5601 31.888 45.0005 31.1977 45.0005Z" fill="#4DC7CF"/>
<path d="M37.7124 45.0009C37.3837 45.0009 37.0612 45.1334 36.8287 45.3671C36.5962 45.5996 36.4624 45.9209 36.4624 46.2509C36.4624 46.5796 36.5962 46.9021 36.8287 47.1346C37.0612 47.3671 37.3837 47.5009 37.7124 47.5009C38.0412 47.5009 38.3637 47.3671 38.5962 47.1346C38.8287 46.9021 38.9624 46.5796 38.9624 46.2509C38.9624 45.9209 38.8287 45.5996 38.5962 45.3671C38.3637 45.1334 38.0412 45.0009 37.7124 45.0009Z" fill="#4DC7CF"/>
<path d="M44.2595 45.0009C43.9308 45.0009 43.6083 45.1334 43.3758 45.3671C43.1433 45.5996 43.0095 45.9209 43.0095 46.2509C43.0095 46.5796 43.1433 46.9021 43.3758 47.1346C43.6083 47.3671 43.9308 47.5009 44.2595 47.5009C44.5895 47.5009 44.9108 47.3671 45.1433 47.1346C45.377 46.9021 45.5095 46.5796 45.5095 46.2509C45.5095 45.9209 45.377 45.5996 45.1433 45.3671C44.9108 45.1334 44.5895 45.0009 44.2595 45.0009Z" fill="#4DC7CF"/>
<path d="M31.1977 34.0007H19.7397C19.0494 34.0007 18.4897 34.5603 18.4897 35.2507C18.4897 35.9411 19.0494 36.5007 19.7397 36.5007H31.1977C31.888 36.5007 32.4476 35.9411 32.4476 35.2507C32.4476 34.5603 31.888 34.0007 31.1977 34.0007Z" fill="#4DC7CF"/>
<path d="M37.7124 34.0011C37.3837 34.0011 37.0612 34.1336 36.8287 34.3674C36.5962 34.5999 36.4624 34.9211 36.4624 35.2511C36.4624 35.5798 36.5962 35.9023 36.8287 36.1348C37.0612 36.3673 37.3837 36.5011 37.7124 36.5011C38.0412 36.5011 38.3637 36.3673 38.5962 36.1348C38.8287 35.9023 38.9624 35.5798 38.9624 35.2511C38.9624 34.9211 38.8287 34.5999 38.5962 34.3674C38.3637 34.1336 38.0412 34.0011 37.7124 34.0011Z" fill="#4DC7CF"/>
<path d="M44.2595 34.0011C43.9308 34.0011 43.6083 34.1336 43.3758 34.3674C43.1433 34.5999 43.0095 34.9211 43.0095 35.2511C43.0095 35.5798 43.1433 35.9023 43.3758 36.1348C43.6083 36.3673 43.9308 36.5011 44.2595 36.5011C44.5895 36.5011 44.9108 36.3673 45.1433 36.1348C45.377 35.9023 45.5095 35.5798 45.5095 35.2511C45.5095 34.9211 45.377 34.5999 45.1433 34.3674C44.9108 34.1336 44.5895 34.0011 44.2595 34.0011Z" fill="#4DC7CF"/>
<path d="M31.1977 23.0011H19.7397C19.0494 23.0011 18.4897 23.5607 18.4897 24.2511C18.4897 24.9414 19.0494 25.501 19.7397 25.501H31.1977C31.888 25.501 32.4476 24.9414 32.4476 24.2511C32.4476 23.5607 31.888 23.0011 31.1977 23.0011Z" fill="#4DC7CF"/>
<path d="M37.7124 25.5015C38.0412 25.5015 38.3637 25.3677 38.5962 25.1352C38.8287 24.9027 38.9624 24.5802 38.9624 24.2515C38.9624 23.9215 38.8287 23.6002 38.5962 23.3677C38.3637 23.134 38.0412 23.0015 37.7124 23.0015C37.3837 23.0015 37.0612 23.134 36.8287 23.3677C36.5962 23.6002 36.4624 23.9215 36.4624 24.2515C36.4624 24.5802 36.5962 24.9027 36.8287 25.1352C37.0612 25.3677 37.3837 25.5015 37.7124 25.5015Z" fill="#4DC7CF"/>
<path d="M44.2595 25.5015C44.5895 25.5015 44.9108 25.3677 45.1445 25.1352C45.377 24.9015 45.5095 24.5802 45.5095 24.2515C45.5095 23.9227 45.377 23.6002 45.1445 23.3677C44.9108 23.134 44.5895 23.0015 44.2595 23.0015C43.9308 23.0015 43.6083 23.134 43.3758 23.3677C43.1433 23.6002 43.0095 23.9215 43.0095 24.2515C43.0095 24.5802 43.1433 24.9027 43.3758 25.1352C43.6083 25.3677 43.9308 25.5015 44.2595 25.5015Z" fill="#4DC7CF"/>
<path d="M63.9991 26.0101C63.9991 22.3077 62.5668 18.8176 59.9658 16.1832C57.6069 13.7938 54.5328 12.3557 51.2209 12.0729C50.4593 8.84865 48.678 5.92322 46.1356 3.7519C43.3026 1.33247 39.6878 0 35.9574 0C30.9681 0 26.3379 2.34207 23.3806 6.31309C22.0754 5.88748 20.7153 5.67236 19.3245 5.67236C12.1006 5.67236 6.22345 11.5495 6.22345 18.7734C6.22345 19.1343 6.23845 19.4968 6.26832 19.8582C2.48042 21.5265 0.000732422 25.2735 0.000732422 29.4809C0.000732422 35.2812 4.71961 40.0001 10.52 40.0001H13.1849C13.3288 40.2717 13.5048 40.5236 13.7083 40.7506C13.1131 41.4146 12.7504 42.2908 12.7504 43.2505V49.2504C12.7504 51.3181 14.4326 53.0003 16.5003 53.0003H30.75V55.6881C29.4101 56.1012 28.351 57.1603 27.9379 58.5001H14.0004C13.31 58.5001 12.7504 59.0597 12.7504 59.7501C12.7504 60.4405 13.31 61.0001 14.0004 61.0001H27.9379C28.473 62.7353 30.0915 64 31.9999 64C33.9084 64 35.527 62.7353 36.0619 61.0001H49.9995C50.6898 61.0001 51.2494 60.4405 51.2494 59.7501C51.2494 59.0597 50.6898 58.5001 49.9995 58.5001H36.0619C35.6488 57.1603 34.5897 56.1012 33.2499 55.6881V53.0003H47.4995C49.5672 53.0003 51.2494 51.3181 51.2494 49.2504V43.2505C51.2494 42.2908 50.8867 41.4146 50.2916 40.7506C50.5012 40.5167 50.6813 40.2565 50.8276 39.9755C58.1621 39.5502 63.9991 33.4494 63.9991 26.0101ZM31.9999 61.5001C31.0349 61.5001 30.25 60.7151 30.25 59.7501C30.25 58.7851 31.0349 58.0002 31.9999 58.0002C32.9649 58.0002 33.7499 58.7851 33.7499 59.7501C33.7499 60.7151 32.9649 61.5001 31.9999 61.5001ZM15.2503 38.2507V32.2508C15.2503 31.5616 15.8111 31.0008 16.5003 31.0008H47.4995C48.1888 31.0008 48.7495 31.5616 48.7495 32.2508V38.2507C48.7495 38.9399 48.1888 39.5006 47.4995 39.5006H16.5003C15.8111 39.5006 15.2503 38.9399 15.2503 38.2507ZM2.50067 29.4809C2.50067 26.0077 4.71711 22.9462 8.01603 21.8624C8.59989 21.6706 8.95776 21.0827 8.85988 20.476C8.76913 19.9136 8.72326 19.3409 8.72326 18.7734C8.72326 12.9279 13.4789 8.17229 19.3244 8.17229C20.7268 8.17229 22.0899 8.44216 23.3755 8.9744C23.9316 9.20452 24.5729 9.00577 24.9011 8.50141C27.3477 4.7435 31.4808 2.49994 35.9574 2.49994C42.4197 2.49994 47.8864 7.11757 48.9561 13.4798C49.0562 14.0753 49.5677 14.514 50.1716 14.5224C56.4177 14.6088 61.4993 19.7621 61.4993 26.0101C61.4993 31.9267 57.0039 36.8124 51.2496 37.4329V32.2507C51.2496 31.291 50.8868 30.4147 50.2917 29.7507C50.8868 29.0868 51.2496 28.2105 51.2496 27.2508V21.251C51.2496 19.1833 49.5673 17.5011 47.4996 17.5011H37.6518C36.9614 17.5011 36.4018 18.0607 36.4018 18.751C36.4018 19.4414 36.9614 20.001 37.6518 20.001H47.4996C48.1889 20.001 48.7496 20.5617 48.7496 21.251V27.2508C48.7496 27.94 48.1889 28.5008 47.4996 28.5008H16.5004C15.8112 28.5008 15.2505 27.94 15.2505 27.2508V21.251C15.2505 20.5617 15.8112 20.001 16.5004 20.001H26.4022C27.0925 20.001 27.6522 19.4414 27.6522 18.751C27.6522 18.0607 27.0925 17.5011 26.4022 17.5011H16.5004C14.4327 17.5011 12.7505 19.1833 12.7505 21.251V27.2508C12.7505 28.2105 13.1133 29.0868 13.7084 29.7507C13.1133 30.4147 12.7505 31.291 12.7505 32.2507V37.5H10.52C6.0982 37.5 2.50067 33.9026 2.50067 29.4809ZM48.7495 49.2504C48.7495 49.9396 48.1888 50.5003 47.4995 50.5003H16.5003C15.8111 50.5003 15.2503 49.9396 15.2503 49.2504V43.2505C15.2503 42.5613 15.8111 42.0006 16.5003 42.0006H47.4995C48.1888 42.0006 48.7495 42.5613 48.7495 43.2505V49.2504Z" fill="#4DC7CF"/>
<path d="M32.0274 20.0128C32.3561 20.0128 32.6786 19.8791 32.9111 19.6466C33.1436 19.4128 33.2774 19.0916 33.2774 18.7628C33.2774 18.4328 33.1436 18.1116 32.9111 17.8778C32.6786 17.6453 32.3561 17.5128 32.0274 17.5128C31.6974 17.5128 31.3761 17.6453 31.1423 17.8778C30.9098 18.1116 30.7773 18.4328 30.7773 18.7628C30.7773 19.0916 30.9098 19.4128 31.1423 19.6466C31.3761 19.8791 31.6986 20.0128 32.0274 20.0128Z" fill="#4DC7CF"/>
</g>
<defs>
<clipPath id="clip0">
<rect width="64" height="64" fill="white"/>
</clipPath>
</defs>
</svg>
