<svg width="24" height="18" viewBox="0 0 24 18" fill="none" xmlns="http://www.w3.org/2000/svg">
<path d="M23.3333 2.42811L20.2112 0.101792C20.1154 0.0299551 19.9881 -0.00657531 19.8624 0.000975678C19.7351 0.00811851 19.6162 0.0577102 19.5319 0.139138L8.20796 11.0669L4.18153 6.5483C4.10474 6.46218 3.99041 6.40524 3.86404 6.39054C3.73792 6.37462 3.60914 6.4036 3.50757 6.46911L0.191205 8.59319C-0.0208521 8.72911 -0.0629746 8.98502 0.0973316 9.16482L7.55277 17.5313C7.6399 17.6291 7.7747 17.6887 7.91912 17.6932C7.92489 17.6932 7.93091 17.6932 7.93669 17.6932C8.07485 17.6932 8.20675 17.6429 8.29846 17.5544L23.3769 3.00403C23.5526 2.83484 23.5331 2.57668 23.3333 2.42811Z" fill="#A9DC3D"/>
</svg>
