<svg width="100" height="100" viewBox="0 0 100 100" fill="none" xmlns="http://www.w3.org/2000/svg">
<circle cx="50" cy="50" r="50" fill="#3CC3CC"/>
<rect x="21" y="48" width="22" height="4" fill="#0D195A"/>
<rect x="61" y="48" width="19" height="4" fill="#0D195A"/>
<path d="M49 66C51.1011 66 53.1817 65.5861 55.1229 64.7821C57.0641 63.978 58.828 62.7994 60.3137 61.3137C61.7994 59.828 62.978 58.0641 63.7821 56.1229C64.5861 54.1817 65 52.1012 65 50C65 47.8989 64.5861 45.8183 63.7821 43.8771C62.978 41.9359 61.7994 40.172 60.3137 38.6863C58.828 37.2006 57.0641 36.022 55.1229 35.2179C53.1817 34.4139 51.1011 34 49 34V39.0471C50.4384 39.0471 51.8626 39.3304 53.1915 39.8808C54.5204 40.4313 55.7278 41.238 56.7449 42.2551C57.762 43.2722 58.5687 44.4796 59.1192 45.8085C59.6696 47.1374 59.9529 48.5616 59.9529 50C59.9529 51.4384 59.6696 52.8626 59.1192 54.1915C58.5687 55.5204 57.762 56.7278 56.7449 57.7449C55.7278 58.762 54.5204 59.5687 53.1915 60.1192C51.8626 60.6696 50.4384 60.9529 49 60.9529V66Z" fill="#0D195A"/>
<circle cx="49" cy="50" r="7" fill="#0D195A"/>
</svg>
