<svg width="60" height="150" viewBox="0 0 60 150" fill="none" xmlns="http://www.w3.org/2000/svg">
<path opacity="0.299456" fill-rule="evenodd" clip-rule="evenodd" d="M57.9166 145.833C59.0672 145.833 60 146.766 60 147.917C60 149.067 59.0672 150 57.9166 150C56.7661 150 55.8334 149.067 55.8334 147.917C55.8334 146.766 56.7661 145.833 57.9166 145.833ZM37.0834 145.833C38.2339 145.833 39.1666 146.766 39.1666 147.917C39.1666 149.067 38.2339 150 37.0834 150C35.9328 150 35 149.067 35 147.917C35 146.766 35.9328 145.833 37.0834 145.833ZM16.25 145.833C17.4006 145.833 18.3334 146.766 18.3334 147.917C18.3334 149.067 17.4006 150 16.25 150C15.0994 150 14.1666 149.067 14.1666 147.917C14.1666 146.766 15.0994 145.833 16.25 145.833ZM-4.58332 145.833C-3.43272 145.833 -2.5 146.766 -2.5 147.917C-2.5 149.067 -3.43272 150 -4.58332 150C-5.73391 150 -6.66668 149.067 -6.66668 147.917C-6.66668 146.766 -5.73391 145.833 -4.58332 145.833ZM-25.4167 145.833C-24.2661 145.833 -23.3333 146.766 -23.3333 147.917C-23.3333 149.067 -24.2661 150 -25.4167 150C-26.5673 150 -27.5 149.067 -27.5 147.917C-27.5 146.766 -26.5673 145.833 -25.4167 145.833ZM-46.25 145.833C-45.0994 145.833 -44.1667 146.766 -44.1667 147.917C-44.1667 149.067 -45.0994 150 -46.25 150C-47.4006 150 -48.3333 149.067 -48.3333 147.917C-48.3333 146.766 -47.4006 145.833 -46.25 145.833ZM-67.0833 145.833C-65.9327 145.833 -65 146.766 -65 147.917C-65 149.067 -65.9327 150 -67.0833 150C-68.2339 150 -69.1667 149.067 -69.1667 147.917C-69.1667 146.766 -68.2339 145.833 -67.0833 145.833ZM-87.9167 145.833C-86.7661 145.833 -85.8333 146.766 -85.8333 147.917C-85.8333 149.067 -86.7661 150 -87.9167 150C-89.0673 150 -90 149.067 -90 147.917C-90 146.766 -89.0673 145.833 -87.9167 145.833ZM57.9166 125C59.0672 125 60 125.933 60 127.083C60 128.234 59.0672 129.167 57.9166 129.167C56.7661 129.167 55.8334 128.234 55.8334 127.083C55.8334 125.933 56.7661 125 57.9166 125ZM-87.9167 125C-86.7661 125 -85.8333 125.933 -85.8333 127.083C-85.8333 128.234 -86.7661 129.167 -87.9167 129.167C-89.0673 129.167 -90 128.234 -90 127.083C-90 125.933 -89.0673 125 -87.9167 125ZM-67.0833 125C-65.9327 125 -65 125.933 -65 127.083C-65 128.234 -65.9327 129.167 -67.0833 129.167C-68.2339 129.167 -69.1667 128.234 -69.1667 127.083C-69.1667 125.933 -68.2339 125 -67.0833 125ZM-46.25 125C-45.0994 125 -44.1667 125.933 -44.1667 127.083C-44.1667 128.234 -45.0994 129.167 -46.25 129.167C-47.4006 129.167 -48.3333 128.234 -48.3333 127.083C-48.3333 125.933 -47.4006 125 -46.25 125ZM-25.4167 125C-24.2661 125 -23.3333 125.933 -23.3333 127.083C-23.3333 128.234 -24.2661 129.167 -25.4167 129.167C-26.5673 129.167 -27.5 128.234 -27.5 127.083C-27.5 125.933 -26.5673 125 -25.4167 125ZM-4.58332 125C-3.43272 125 -2.5 125.933 -2.5 127.083C-2.5 128.234 -3.43272 129.167 -4.58332 129.167C-5.73391 129.167 -6.66668 128.234 -6.66668 127.083C-6.66668 125.933 -5.73391 125 -4.58332 125ZM16.25 125C17.4006 125 18.3334 125.933 18.3334 127.083C18.3334 128.234 17.4006 129.167 16.25 129.167C15.0994 129.167 14.1666 128.234 14.1666 127.083C14.1666 125.933 15.0994 125 16.25 125ZM37.0834 125C38.2339 125 39.1666 125.933 39.1666 127.083C39.1666 128.234 38.2339 129.167 37.0834 129.167C35.9328 129.167 35 128.234 35 127.083C35 125.933 35.9328 125 37.0834 125ZM37.0834 104.167C38.2339 104.167 39.1666 105.099 39.1666 106.25C39.1666 107.401 38.2339 108.333 37.0834 108.333C35.9328 108.333 35 107.401 35 106.25C35 105.099 35.9328 104.167 37.0834 104.167ZM57.9166 104.167C59.0672 104.167 60 105.099 60 106.25C60 107.401 59.0672 108.333 57.9166 108.333C56.7661 108.333 55.8334 107.401 55.8334 106.25C55.8334 105.099 56.7661 104.167 57.9166 104.167ZM-87.9167 104.167C-86.7661 104.167 -85.8333 105.099 -85.8333 106.25C-85.8333 107.401 -86.7661 108.333 -87.9167 108.333C-89.0673 108.333 -90 107.401 -90 106.25C-90 105.099 -89.0673 104.167 -87.9167 104.167ZM-67.0833 104.167C-65.9327 104.167 -65 105.099 -65 106.25C-65 107.401 -65.9327 108.333 -67.0833 108.333C-68.2339 108.333 -69.1667 107.401 -69.1667 106.25C-69.1667 105.099 -68.2339 104.167 -67.0833 104.167ZM-46.25 104.167C-45.0994 104.167 -44.1667 105.099 -44.1667 106.25C-44.1667 107.401 -45.0994 108.333 -46.25 108.333C-47.4006 108.333 -48.3333 107.401 -48.3333 106.25C-48.3333 105.099 -47.4006 104.167 -46.25 104.167ZM-25.4167 104.167C-24.2661 104.167 -23.3333 105.099 -23.3333 106.25C-23.3333 107.401 -24.2661 108.333 -25.4167 108.333C-26.5673 108.333 -27.5 107.401 -27.5 106.25C-27.5 105.099 -26.5673 104.167 -25.4167 104.167ZM-4.58332 104.167C-3.43272 104.167 -2.5 105.099 -2.5 106.25C-2.5 107.401 -3.43272 108.333 -4.58332 108.333C-5.73391 108.333 -6.66668 107.401 -6.66668 106.25C-6.66668 105.099 -5.73391 104.167 -4.58332 104.167ZM16.25 104.167C17.4006 104.167 18.3334 105.099 18.3334 106.25C18.3334 107.401 17.4006 108.333 16.25 108.333C15.0994 108.333 14.1666 107.401 14.1666 106.25C14.1666 105.099 15.0994 104.167 16.25 104.167ZM16.25 83.3333C17.4006 83.3333 18.3334 84.2661 18.3334 85.4167C18.3334 86.5673 17.4006 87.5 16.25 87.5C15.0994 87.5 14.1666 86.5673 14.1666 85.4167C14.1666 84.2661 15.0994 83.3333 16.25 83.3333ZM-4.58332 83.3333C-3.43272 83.3333 -2.5 84.2661 -2.5 85.4167C-2.5 86.5673 -3.43272 87.5 -4.58332 87.5C-5.73391 87.5 -6.66668 86.5673 -6.66668 85.4167C-6.66668 84.2661 -5.73391 83.3333 -4.58332 83.3333ZM-25.4167 83.3333C-24.2661 83.3333 -23.3333 84.2661 -23.3333 85.4167C-23.3333 86.5673 -24.2661 87.5 -25.4167 87.5C-26.5673 87.5 -27.5 86.5673 -27.5 85.4167C-27.5 84.2661 -26.5673 83.3333 -25.4167 83.3333ZM-46.25 83.3333C-45.0994 83.3333 -44.1667 84.2661 -44.1667 85.4167C-44.1667 86.5673 -45.0994 87.5 -46.25 87.5C-47.4006 87.5 -48.3333 86.5673 -48.3333 85.4167C-48.3333 84.2661 -47.4006 83.3333 -46.25 83.3333ZM-67.0833 83.3333C-65.9327 83.3333 -65 84.2661 -65 85.4167C-65 86.5673 -65.9327 87.5 -67.0833 87.5C-68.2339 87.5 -69.1667 86.5673 -69.1667 85.4167C-69.1667 84.2661 -68.2339 83.3333 -67.0833 83.3333ZM-87.9167 83.3333C-86.7661 83.3333 -85.8333 84.2661 -85.8333 85.4167C-85.8333 86.5673 -86.7661 87.5 -87.9167 87.5C-89.0673 87.5 -90 86.5673 -90 85.4167C-90 84.2661 -89.0673 83.3333 -87.9167 83.3333ZM57.9166 83.3333C59.0672 83.3333 60 84.2661 60 85.4167C60 86.5673 59.0672 87.5 57.9166 87.5C56.7661 87.5 55.8334 86.5673 55.8334 85.4167C55.8334 84.2661 56.7661 83.3333 57.9166 83.3333ZM37.0834 83.3333C38.2339 83.3333 39.1666 84.2661 39.1666 85.4167C39.1666 86.5673 38.2339 87.5 37.0834 87.5C35.9328 87.5 35 86.5673 35 85.4167C35 84.2661 35.9328 83.3333 37.0834 83.3333ZM16.25 62.5C17.4006 62.5 18.3334 63.4327 18.3334 64.5833C18.3334 65.7339 17.4006 66.6667 16.25 66.6667C15.0994 66.6667 14.1666 65.7339 14.1666 64.5833C14.1666 63.4327 15.0994 62.5 16.25 62.5ZM-4.58332 62.5C-3.43272 62.5 -2.5 63.4327 -2.5 64.5833C-2.5 65.7339 -3.43272 66.6667 -4.58332 66.6667C-5.73391 66.6667 -6.66668 65.7339 -6.66668 64.5833C-6.66668 63.4327 -5.73391 62.5 -4.58332 62.5ZM-25.4167 62.5C-24.2661 62.5 -23.3333 63.4327 -23.3333 64.5833C-23.3333 65.7339 -24.2661 66.6667 -25.4167 66.6667C-26.5673 66.6667 -27.5 65.7339 -27.5 64.5833C-27.5 63.4327 -26.5673 62.5 -25.4167 62.5ZM-46.25 62.5C-45.0994 62.5 -44.1667 63.4327 -44.1667 64.5833C-44.1667 65.7339 -45.0994 66.6667 -46.25 66.6667C-47.4006 66.6667 -48.3333 65.7339 -48.3333 64.5833C-48.3333 63.4327 -47.4006 62.5 -46.25 62.5ZM-67.0833 62.5C-65.9327 62.5 -65 63.4327 -65 64.5833C-65 65.7339 -65.9327 66.6667 -67.0833 66.6667C-68.2339 66.6667 -69.1667 65.7339 -69.1667 64.5833C-69.1667 63.4327 -68.2339 62.5 -67.0833 62.5ZM-87.9167 62.5C-86.7661 62.5 -85.8333 63.4327 -85.8333 64.5833C-85.8333 65.7339 -86.7661 66.6667 -87.9167 66.6667C-89.0673 66.6667 -90 65.7339 -90 64.5833C-90 63.4327 -89.0673 62.5 -87.9167 62.5ZM57.9166 62.5C59.0672 62.5 60 63.4327 60 64.5833C60 65.7339 59.0672 66.6667 57.9166 66.6667C56.7661 66.6667 55.8334 65.7339 55.8334 64.5833C55.8334 63.4327 56.7661 62.5 57.9166 62.5ZM37.0834 62.5C38.2339 62.5 39.1666 63.4327 39.1666 64.5833C39.1666 65.7339 38.2339 66.6667 37.0834 66.6667C35.9328 66.6667 35 65.7339 35 64.5833C35 63.4327 35.9328 62.5 37.0834 62.5ZM-4.58332 41.6667C-3.43272 41.6667 -2.5 42.5994 -2.5 43.75C-2.5 44.9006 -3.43272 45.8333 -4.58332 45.8333C-5.73391 45.8333 -6.66668 44.9006 -6.66668 43.75C-6.66668 42.5994 -5.73391 41.6667 -4.58332 41.6667ZM57.9166 41.6667C59.0672 41.6667 60 42.5994 60 43.75C60 44.9006 59.0672 45.8333 57.9166 45.8333C56.7661 45.8333 55.8334 44.9006 55.8334 43.75C55.8334 42.5994 56.7661 41.6667 57.9166 41.6667ZM37.0834 41.6667C38.2339 41.6667 39.1666 42.5994 39.1666 43.75C39.1666 44.9006 38.2339 45.8333 37.0834 45.8333C35.9328 45.8333 35 44.9006 35 43.75C35 42.5994 35.9328 41.6667 37.0834 41.6667ZM16.25 41.6667C17.4006 41.6667 18.3334 42.5994 18.3334 43.75C18.3334 44.9006 17.4006 45.8333 16.25 45.8333C15.0994 45.8333 14.1666 44.9006 14.1666 43.75C14.1666 42.5994 15.0994 41.6667 16.25 41.6667ZM-46.25 41.6667C-45.0994 41.6667 -44.1667 42.5994 -44.1667 43.75C-44.1667 44.9006 -45.0994 45.8333 -46.25 45.8333C-47.4006 45.8333 -48.3333 44.9006 -48.3333 43.75C-48.3333 42.5994 -47.4006 41.6667 -46.25 41.6667ZM-67.0833 41.6667C-65.9327 41.6667 -65 42.5994 -65 43.75C-65 44.9006 -65.9327 45.8333 -67.0833 45.8333C-68.2339 45.8333 -69.1667 44.9006 -69.1667 43.75C-69.1667 42.5994 -68.2339 41.6667 -67.0833 41.6667ZM-87.9167 41.6667C-86.7661 41.6667 -85.8333 42.5994 -85.8333 43.75C-85.8333 44.9006 -86.7661 45.8333 -87.9167 45.8333C-89.0673 45.8333 -90 44.9006 -90 43.75C-90 42.5994 -89.0673 41.6667 -87.9167 41.6667ZM-25.4167 41.6667C-24.2661 41.6667 -23.3333 42.5994 -23.3333 43.75C-23.3333 44.9006 -24.2661 45.8333 -25.4167 45.8333C-26.5673 45.8333 -27.5 44.9006 -27.5 43.75C-27.5 42.5994 -26.5673 41.6667 -25.4167 41.6667ZM-46.25 20.8333C-45.0994 20.8333 -44.1667 21.7661 -44.1667 22.9167C-44.1667 24.0673 -45.0994 25 -46.25 25C-47.4006 25 -48.3333 24.0673 -48.3333 22.9167C-48.3333 21.7661 -47.4006 20.8333 -46.25 20.8333ZM-25.4167 20.8333C-24.2661 20.8333 -23.3333 21.7661 -23.3333 22.9167C-23.3333 24.0673 -24.2661 25 -25.4167 25C-26.5673 25 -27.5 24.0673 -27.5 22.9167C-27.5 21.7661 -26.5673 20.8333 -25.4167 20.8333ZM37.0834 20.8333C38.2339 20.8333 39.1666 21.7661 39.1666 22.9167C39.1666 24.0673 38.2339 25 37.0834 25C35.9328 25 35 24.0673 35 22.9167C35 21.7661 35.9328 20.8333 37.0834 20.8333ZM57.9166 20.8333C59.0672 20.8333 60 21.7661 60 22.9167C60 24.0673 59.0672 25 57.9166 25C56.7661 25 55.8334 24.0673 55.8334 22.9167C55.8334 21.7661 56.7661 20.8333 57.9166 20.8333ZM-87.9167 20.8333C-86.7661 20.8333 -85.8333 21.7661 -85.8333 22.9167C-85.8333 24.0673 -86.7661 25 -87.9167 25C-89.0673 25 -90 24.0673 -90 22.9167C-90 21.7661 -89.0673 20.8333 -87.9167 20.8333ZM16.25 20.8333C17.4006 20.8333 18.3334 21.7661 18.3334 22.9167C18.3334 24.0673 17.4006 25 16.25 25C15.0994 25 14.1666 24.0673 14.1666 22.9167C14.1666 21.7661 15.0994 20.8333 16.25 20.8333ZM-4.58332 20.8333C-3.43272 20.8333 -2.5 21.7661 -2.5 22.9167C-2.5 24.0673 -3.43272 25 -4.58332 25C-5.73391 25 -6.66668 24.0673 -6.66668 22.9167C-6.66668 21.7661 -5.73391 20.8333 -4.58332 20.8333ZM-67.0833 20.8333C-65.9327 20.8333 -65 21.7661 -65 22.9167C-65 24.0673 -65.9327 25 -67.0833 25C-68.2339 25 -69.1667 24.0673 -69.1667 22.9167C-69.1667 21.7661 -68.2339 20.8333 -67.0833 20.8333ZM-25.4167 0C-24.2661 0 -23.3333 0.932737 -23.3333 2.08333C-23.3333 3.23392 -24.2661 4.16667 -25.4167 4.16667C-26.5673 4.16667 -27.5 3.23392 -27.5 2.08333C-27.5 0.932737 -26.5673 0 -25.4167 0ZM-4.58332 0C-3.43272 0 -2.5 0.932737 -2.5 2.08333C-2.5 3.23392 -3.43272 4.16667 -4.58332 4.16667C-5.73391 4.16667 -6.66668 3.23392 -6.66668 2.08333C-6.66668 0.932737 -5.73391 0 -4.58332 0ZM16.25 0C17.4006 0 18.3334 0.932737 18.3334 2.08333C18.3334 3.23392 17.4006 4.16667 16.25 4.16667C15.0994 4.16667 14.1666 3.23392 14.1666 2.08333C14.1666 0.932737 15.0994 0 16.25 0ZM37.0834 0C38.2339 0 39.1666 0.932737 39.1666 2.08333C39.1666 3.23392 38.2339 4.16667 37.0834 4.16667C35.9328 4.16667 35 3.23392 35 2.08333C35 0.932737 35.9328 0 37.0834 0ZM57.9166 0C59.0672 0 60 0.932737 60 2.08333C60 3.23392 59.0672 4.16667 57.9166 4.16667C56.7661 4.16667 55.8334 3.23392 55.8334 2.08333C55.8334 0.932737 56.7661 0 57.9166 0ZM-87.9167 0C-86.7661 0 -85.8333 0.932737 -85.8333 2.08333C-85.8333 3.23392 -86.7661 4.16667 -87.9167 4.16667C-89.0673 4.16667 -90 3.23392 -90 2.08333C-90 0.932737 -89.0673 0 -87.9167 0ZM-67.0833 0C-65.9327 0 -65 0.932737 -65 2.08333C-65 3.23392 -65.9327 4.16667 -67.0833 4.16667C-68.2339 4.16667 -69.1667 3.23392 -69.1667 2.08333C-69.1667 0.932737 -68.2339 0 -67.0833 0ZM-46.25 0C-45.0994 0 -44.1667 0.932737 -44.1667 2.08333C-44.1667 3.23392 -45.0994 4.16667 -46.25 4.16667C-47.4006 4.16667 -48.3333 3.23392 -48.3333 2.08333C-48.3333 0.932737 -47.4006 0 -46.25 0Z" fill="#040920"/>
</svg>
