<svg width="64" height="64" viewBox="0 0 64 64" fill="none" xmlns="http://www.w3.org/2000/svg">
<g clip-path="url(#clip0)">
<path d="M4.26667 53.3504H6.4V51.2171H4.26667C3.08827 51.2171 2.13333 50.2621 2.13333 49.0837V6.41706C2.13333 5.23866 3.08827 4.28372 4.26667 4.28372H51.2C52.3784 4.28372 53.3333 5.23866 53.3333 6.41706V8.55039H55.4667V6.41706C55.4667 4.06079 53.5563 2.15039 51.2 2.15039H4.26667C1.9104 2.15039 0 4.06079 0 6.41706V49.0837C0 51.44 1.9104 53.3504 4.26667 53.3504Z" fill="#ABDF3D"/>
<path d="M4.2666 6.41699H6.39994V8.55033H4.2666V6.41699Z" fill="#ABDF3D"/>
<path d="M8.5332 6.41699H10.6665V8.55033H8.5332V6.41699Z" fill="#ABDF3D"/>
<path d="M12.8 6.41699H14.9334V8.55033H12.8V6.41699Z" fill="#ABDF3D"/>
<path d="M8.5332 57.6172C8.5332 59.9734 10.4436 61.8838 12.7999 61.8838H59.7332C62.0895 61.8838 63.9999 59.9734 63.9999 57.6172V14.9505C63.9999 12.5942 62.0895 10.6838 59.7332 10.6838H12.7999C10.4436 10.6838 8.5332 12.5942 8.5332 14.9505V57.6172ZM10.6665 14.9505C10.6665 13.7721 11.6215 12.8172 12.7999 12.8172H59.7332C60.9116 12.8172 61.8665 13.7721 61.8665 14.9505V57.6172C61.8665 58.7956 60.9116 59.7505 59.7332 59.7505H12.7999C11.6215 59.7505 10.6665 58.7956 10.6665 57.6172V14.9505Z" fill="#ABDF3D"/>
<path d="M12.8 14.9503H14.9334V17.0837H12.8V14.9503Z" fill="#ABDF3D"/>
<path d="M17.0667 14.9503H19.2V17.0837H17.0667V14.9503Z" fill="#ABDF3D"/>
<path d="M21.3333 14.9503H23.4666V17.0837H21.3333V14.9503Z" fill="#ABDF3D"/>
<path d="M12.8 19.2172H59.7334V21.3505H12.8V19.2172Z" fill="#ABDF3D"/>
<path d="M12.8 24.5503H21.3334V26.6836H12.8V24.5503Z" fill="#ABDF3D"/>
<path d="M12.8 28.8171H19.2001V30.9505H12.8V28.8171Z" fill="#ABDF3D"/>
<path d="M36.2667 33.0836C32.1427 33.0836 28.8 36.4263 28.8 40.5503C28.8 44.6743 32.1427 48.0169 36.2667 48.0169C40.3907 48.0169 43.7334 44.6743 43.7334 40.5503C43.7286 36.4287 40.3883 33.0884 36.2667 33.0836ZM36.2667 45.8836C33.3214 45.8836 30.9334 43.4956 30.9334 40.5503C30.9334 37.6049 33.3214 35.2169 36.2667 35.2169C39.2121 35.2169 41.6001 37.6049 41.6001 40.5503C41.5963 43.4943 39.2107 45.8799 36.2667 45.8836Z" fill="#ABDF3D"/>
<path d="M53.3333 37.3503C53.3333 36.761 52.8559 36.2836 52.2666 36.2836H49.4474C49.2215 35.5828 48.9399 34.901 48.6037 34.2463L50.5973 32.254C51.0133 31.8372 51.0133 31.1623 50.5973 30.7455L46.0714 26.2196C45.6546 25.8036 44.9797 25.8036 44.5629 26.2196L42.5706 28.2122C41.9149 27.8772 41.2335 27.5956 40.5333 27.3695V24.5503C40.5333 23.961 40.0559 23.4836 39.4666 23.4836H33.0666C32.4773 23.4836 31.9999 23.961 31.9999 24.5503V27.3695C31.2997 27.5956 30.6184 27.8772 29.9626 28.2122L27.9704 26.2196C27.5536 25.8036 26.8786 25.8036 26.4618 26.2196L21.936 30.7455C21.52 31.1623 21.52 31.8372 21.936 32.254L23.9285 34.2463C23.8394 34.421 23.7536 34.5962 23.6725 34.7732C23.4474 35.265 23.2517 35.769 23.0858 36.2836H20.2666C19.6773 36.2836 19.2 36.761 19.2 37.3503V43.7503C19.2 44.3396 19.6773 44.817 20.2666 44.817H23.0858C23.3117 45.5178 23.5933 46.1996 23.9296 46.8543L21.936 48.8466C21.52 49.2634 21.52 49.9383 21.936 50.3551L26.4618 54.881C26.8786 55.297 27.5536 55.297 27.9704 54.881L29.9626 52.8884C30.6184 53.2234 31.2997 53.505 31.9999 53.7311V56.5503C31.9999 57.1396 32.4773 57.617 33.0666 57.617H39.4666C40.0559 57.617 40.5333 57.1396 40.5333 56.5503V53.7311C41.2335 53.505 41.9149 53.2234 42.5706 52.8884L44.5629 54.881C44.9797 55.297 45.6546 55.297 46.0714 54.881L50.5973 50.3551C51.0133 49.9383 51.0133 49.2634 50.5973 48.8466L48.6037 46.8543C48.9399 46.1996 49.2215 45.5178 49.4474 44.817H52.2666C52.8559 44.817 53.3333 44.3396 53.3333 43.7503V37.3503ZM51.1999 42.6836H48.6463C48.1599 42.6836 47.7354 43.013 47.6138 43.4836C47.3413 44.5423 46.9213 45.5583 46.3658 46.5002C46.1186 46.9188 46.1866 47.4522 46.5301 47.7962L48.3335 49.6007L45.317 52.6186L43.5125 50.8138C43.1682 50.4698 42.6349 50.402 42.2159 50.6495C41.2741 51.205 40.2586 51.6252 39.1999 51.8975C38.7293 52.0191 38.4 52.4436 38.4 52.93V55.4836H34.1333V52.93C34.1333 52.4436 33.8039 52.0191 33.3333 51.8975C32.2746 51.6252 31.2592 51.205 30.3173 50.6495C29.8983 50.402 29.365 50.4698 29.0208 50.8138L27.2162 52.6186L24.1997 49.6007L26.0032 47.7962C26.3466 47.4522 26.4146 46.9188 26.1674 46.5002C25.612 45.5583 25.192 44.5423 24.9194 43.4836C24.7978 43.013 24.3733 42.6836 23.8869 42.6836H21.3333V38.417H23.8869C24.3733 38.417 24.7978 38.0876 24.9194 37.617C25.0917 36.9455 25.324 36.2916 25.613 35.662C25.7797 35.297 25.9648 34.941 26.1674 34.5954C26.4138 34.1764 26.3464 33.6439 26.0032 33.3002L24.1997 31.4956L27.2162 28.4778L29.0208 30.2831C29.365 30.6271 29.8983 30.6943 30.3173 30.4466C31.2592 29.8916 32.2746 29.4708 33.3333 29.1986C33.8039 29.0772 34.1333 28.6522 34.1333 28.1666V25.617H38.4V28.1706C38.4 28.657 38.7293 29.0815 39.1999 29.2031C40.2586 29.4754 41.2741 29.8956 42.2159 30.4511C42.6349 30.6986 43.1682 30.6308 43.5125 30.2868L45.317 28.482L48.3335 31.4999L46.5301 33.3044C46.1866 33.6484 46.1186 34.1818 46.3658 34.6004C46.9213 35.5423 47.3413 36.5583 47.6138 37.617C47.7354 38.0876 48.1599 38.417 48.6463 38.417H51.1999V42.6836Z" fill="#ABDF3D"/>
<path d="M53.3335 55.4836H59.7335V57.617H53.3335V55.4836Z" fill="#ABDF3D"/>
</g>
<defs>
<clipPath id="clip0">
<rect width="64" height="64" fill="white"/>
</clipPath>
</defs>
</svg>
