<svg width="64" height="64" viewBox="0 0 64 64" fill="none" xmlns="http://www.w3.org/2000/svg">
<path d="M44.4844 28.7714C42.7239 28.7731 41.2969 30.2002 41.2951 31.9606C41.2951 31.9687 41.2963 31.9768 41.2963 31.9849L38.2309 34.7945C37.1522 33.8541 35.5787 33.7482 34.3837 34.5358C33.1886 35.3234 32.6661 36.8119 33.1059 38.1736L30.3021 40.5381C29.7274 39.8032 28.8582 39.3587 27.9265 39.3211C26.9942 39.2841 26.0926 39.6591 25.4612 40.3454L22.5908 38.3466C22.8825 36.7818 21.9791 35.2401 20.471 34.7297C18.9629 34.2187 17.309 34.8946 16.5897 36.3153C15.8709 37.7361 16.3055 39.4693 17.6099 40.3819C18.9143 41.2951 20.6915 41.1105 21.7801 39.9484L24.6609 41.9554C24.4508 43.1429 24.9288 44.3472 25.8964 45.0671C26.8634 45.787 28.1539 45.9004 29.2315 45.3587C30.309 44.8177 30.989 43.7152 30.9884 42.5092C30.9884 42.4369 30.9826 42.3663 30.9774 42.2951L34.1076 39.655C35.1846 40.5515 36.7205 40.6394 37.8923 39.8715C39.0642 39.1035 39.5966 37.6603 39.2043 36.3153L41.9097 33.8356C42.7951 35.052 44.4114 35.4837 45.7853 34.8709C47.1597 34.2575 47.9178 32.7667 47.6041 31.2951C47.2905 29.8229 45.9901 28.7714 44.4849 28.7719L44.4844 28.7714ZM19.456 39.1828C18.6765 39.1828 18.0445 38.5509 18.0445 37.7708C18.0445 36.9913 18.6765 36.3593 19.4566 36.3593C20.2361 36.3593 20.868 36.9913 20.868 37.7708C20.8669 38.5503 20.2355 39.1817 19.456 39.1828ZM27.7992 43.9201C27.0191 43.9201 26.3871 43.2881 26.3871 42.5086C26.3871 41.7291 27.0191 41.0966 27.7992 41.0966C28.5787 41.0966 29.2106 41.7291 29.2106 42.5086C29.2095 43.2876 28.5781 43.9195 27.7992 43.9201ZM36.1418 38.6111C35.3622 38.6111 34.7297 37.9791 34.7297 37.199C34.7297 36.4195 35.3622 35.7876 36.1418 35.7876C36.9219 35.7876 37.5538 36.4195 37.5538 37.1996C37.5526 37.9791 36.9213 38.6105 36.1418 38.6111ZM44.4844 33.3726C43.7048 33.3726 43.0729 32.7407 43.0729 31.9606C43.0729 31.1811 43.7048 30.5491 44.4844 30.5491C45.2644 30.5491 45.8964 31.1811 45.8964 31.9606C45.8952 32.7401 45.2639 33.3715 44.4844 33.3726Z" fill="#1736F3"/>
<path d="M46.522 37.2424H42.448C41.9567 37.2424 41.5591 37.6406 41.5591 38.1313V55.3767C41.5591 55.8674 41.9567 56.2656 42.448 56.2656H46.522C47.0128 56.2656 47.4109 55.8674 47.4109 55.3767V38.1313C47.4109 37.6406 47.0128 37.2424 46.522 37.2424ZM45.6332 54.4878H43.3369V39.0202H45.6332V54.4878Z" fill="#1736F3"/>
<path d="M38.1788 42.4601H34.1047C33.614 42.4601 33.2158 42.8582 33.2158 43.349V55.3768C33.2158 55.8675 33.614 56.2656 34.1047 56.2656H38.1788C38.6701 56.2656 39.0677 55.8675 39.0677 55.3768V43.349C39.0677 42.8582 38.6701 42.4601 38.1788 42.4601ZM37.2899 54.4879H34.9936V44.2379H37.2899V54.4879Z" fill="#1736F3"/>
<path d="M29.8367 47.8182H25.7627C25.2719 47.8182 24.8738 48.2158 24.8738 48.7071V55.3767C24.8738 55.8674 25.2719 56.2656 25.7627 56.2656H29.8367C30.3281 56.2656 30.7256 55.8674 30.7256 55.3767V48.7071C30.7256 48.2158 30.3281 47.8182 29.8367 47.8182ZM28.9479 54.4878H26.6516V49.596H28.9479V54.4878Z" fill="#1736F3"/>
<path d="M21.493 43.1024H17.4189C16.9282 43.1024 16.53 43.5006 16.53 43.9913V55.3767C16.53 55.8675 16.9282 56.2656 17.4189 56.2656H21.493C21.9843 56.2656 22.3819 55.8675 22.3819 55.3767V43.9913C22.3819 43.5006 21.9843 43.1024 21.493 43.1024ZM20.6041 54.4878H18.3078V44.8802H20.6041V54.4878Z" fill="#1736F3"/>
<path d="M47.2077 0H18.3275C17.8362 0 17.4386 0.398148 17.4386 0.888889V2.93634H10.4485C8.19733 2.93866 6.37325 4.76273 6.37036 7.01389V59.9225C6.37325 62.1736 8.19733 63.9977 10.4485 64H53.4925C55.7436 63.9977 57.5677 62.1736 57.5706 59.9225V7.01389C57.5677 4.76331 55.7436 2.93924 53.493 2.93634H48.0966V0.888889C48.0966 0.398148 47.6985 0 47.2077 0V0ZM19.2164 1.77778H46.3189V5.48264H19.2164V1.77778ZM53.4925 4.71412C54.7621 4.71528 55.7911 5.74421 55.7928 7.01389V59.9225C55.7911 61.1921 54.7621 62.2211 53.4925 62.2222H10.4485C9.17881 62.2211 8.14988 61.1921 8.14814 59.9225V7.01389C8.14988 5.74421 9.17823 4.71586 10.4479 4.71412H17.4381V6.37153C17.4381 6.86227 17.8356 7.26042 18.327 7.26042H47.2077C47.6985 7.26042 48.0966 6.86227 48.0966 6.37153V4.71412H53.4925Z" fill="#1736F3"/>
<path d="M15.1389 25.0504H29.6713C30.162 25.0504 30.5602 24.6522 30.5602 24.1615V16.1904C30.5602 15.6997 30.162 15.3015 29.6713 15.3015H15.1389C14.6481 15.3015 14.25 15.6997 14.25 16.1904V24.1615C14.25 24.6522 14.6481 25.0504 15.1389 25.0504ZM16.0278 17.0793H28.7824V23.2726H16.0278V17.0793Z" fill="#1736F3"/>
<path d="M48.802 23.2726H48.1845C47.6938 23.2726 47.2957 23.6707 47.2957 24.1615C47.2957 24.6522 47.6938 25.0504 48.1845 25.0504H48.802C49.2928 25.0504 49.6909 24.6522 49.6909 24.1615C49.6909 23.6707 49.2928 23.2726 48.802 23.2726Z" fill="#1736F3"/>
<path d="M37.2829 25.0504H44.0636C44.5543 25.0504 44.9525 24.6522 44.9525 24.1615C44.9525 23.6707 44.5543 23.2726 44.0636 23.2726H37.2829C36.7916 23.2726 36.394 23.6707 36.394 24.1615C36.394 24.6522 36.7916 25.0504 37.2829 25.0504Z" fill="#1736F3"/>
<path d="M41.0781 16.1904C41.0781 16.6811 41.4763 17.0793 41.967 17.0793H48.8021C49.2928 17.0793 49.691 16.6811 49.691 16.1904C49.691 15.6997 49.2928 15.3015 48.8021 15.3015H41.967C41.4763 15.3015 41.0781 15.6997 41.0781 16.1904Z" fill="#1736F3"/>
<path d="M37.2829 17.0793H37.846C38.3368 17.0793 38.7349 16.6811 38.7349 16.1904C38.7349 15.6997 38.3368 15.3015 37.846 15.3015H37.2829C36.7916 15.3015 36.394 15.6997 36.394 16.1904C36.394 16.6811 36.7916 17.0793 37.2829 17.0793Z" fill="#1736F3"/>
<path d="M22.7563 31.5688C22.7563 32.0596 23.1545 32.4577 23.6452 32.4577H34.1157C34.6065 32.4577 35.0046 32.0596 35.0046 31.5688C35.0046 31.0781 34.6065 30.6799 34.1157 30.6799H23.6452C23.1545 30.6799 22.7563 31.0781 22.7563 31.5688Z" fill="#1736F3"/>
<path d="M19.2234 30.6799C18.7326 30.6799 18.3345 31.0781 18.3345 31.5688C18.3345 32.0596 18.7326 32.4577 19.2234 32.4577H20.3918C20.8825 32.4577 21.2806 32.0596 21.2806 31.5688C21.2806 31.0781 20.8825 30.6799 20.3918 30.6799H19.2234Z" fill="#1736F3"/>
<path d="M16.9144 31.5688C16.9144 31.0781 16.5162 30.6799 16.0255 30.6799H15.1389C14.6481 30.6799 14.25 31.0781 14.25 31.5688C14.25 32.0596 14.6481 32.4577 15.1389 32.4577H16.0255C16.5162 32.4577 16.9144 32.0596 16.9144 31.5688Z" fill="#1736F3"/>
</svg>
