<svg width="64" height="64" viewBox="0 0 64 64" fill="none" xmlns="http://www.w3.org/2000/svg">
<g clip-path="url(#clip0)">
<path d="M2.90913 17.0315V46.9684C2.90913 47.4861 3.32888 47.9059 3.84663 47.9059C4.36438 47.9059 4.78412 47.4861 4.78412 46.9684V17.0315C4.78412 16.5138 4.36438 16.094 3.84663 16.094C3.32888 16.094 2.90913 16.5138 2.90913 17.0315ZM61.983 52.1656C60.7388 51.6501 59.3745 51.9217 58.4225 52.874L57.7934 53.5031L54.6515 50.3613C53.4688 49.1784 51.5441 49.1785 50.3614 50.3613C49.7884 50.9341 49.4728 51.696 49.4728 52.5064C49.4728 53.3167 49.7884 54.0786 50.3614 54.6515L53.5033 57.7934L52.8741 58.4225C51.9219 59.3746 51.6505 60.739 52.1657 61.983C52.6811 63.2271 53.8377 64 55.1842 64H60.7158C62.5266 64 64 62.5266 64 60.7158V55.1842C64 53.8376 63.2271 52.681 61.983 52.1656ZM51.6871 53.3256C51.4683 53.1068 51.3478 52.8159 51.3478 52.5064C51.3478 52.1969 51.4683 51.906 51.6871 51.6871C52.1389 51.2353 52.874 51.2354 53.3257 51.6871L56.4676 54.829L54.829 56.4676L51.6871 53.3256ZM62.125 60.7158C62.125 61.4929 61.4928 62.125 60.7158 62.125H55.1842C54.6017 62.125 54.1209 61.8037 53.898 61.2655C53.6751 60.7274 53.7879 60.1602 54.1999 59.7482L59.7484 54.1997C60.021 53.9271 60.3615 53.7856 60.7168 53.7856C60.8983 53.7856 61.0836 53.8226 61.2656 53.898C61.8039 54.1209 62.1251 54.6017 62.1251 55.1842L62.125 60.7158ZM2.01688 11.8344C2.43375 12.007 2.86413 12.0914 3.28787 12.0914C4.129 12.0914 4.94438 11.7591 5.5775 11.126L6.20662 10.4969L9.3485 13.6386C9.93988 14.2301 10.7166 14.5258 11.4936 14.5258C12.2704 14.5258 13.0474 14.23 13.6388 13.6388C14.2118 13.0658 14.5274 12.304 14.5274 11.4936C14.5274 10.6832 14.2118 9.92138 13.6388 9.3485L10.4969 6.20675L11.1261 5.5775C12.0784 4.62537 12.3498 3.261 11.8344 2.017C11.319 0.772875 10.1624 0 8.81575 0H3.28425C1.47337 0 0 1.47337 0 3.28425V8.81575C0 10.1624 0.772875 11.319 2.01688 11.8344ZM12.3129 10.6744C12.5317 10.8932 12.6523 11.1841 12.6523 11.4936C12.6523 11.8031 12.5317 12.094 12.3129 12.3129C11.8611 12.7647 11.1259 12.7646 10.6742 12.313L7.5325 9.17113L9.17113 7.5325L12.3129 10.6744ZM1.875 3.28425C1.875 2.50725 2.50725 1.875 3.28425 1.875H8.81575C9.39825 1.875 9.87913 2.19625 10.102 2.7345C10.325 3.27262 10.2121 3.83987 9.80025 4.25175L4.25175 9.80025C3.83987 10.2121 3.27262 10.3249 2.73438 10.1021C2.19625 9.87913 1.875 9.39838 1.875 8.81575V3.28425ZM60.7158 0H55.1842C53.8376 0 52.681 0.772875 52.1657 2.017C51.6504 3.26113 51.9219 4.62537 52.8741 5.5775L53.5033 6.20662L50.3613 9.3485C49.1785 10.5312 49.1785 12.4559 50.3611 13.6386C50.9341 14.2116 51.6959 14.5273 52.5064 14.5273C53.3167 14.5273 54.0786 14.2116 54.6515 13.6386L57.7934 10.4967L58.4225 11.1259C59.0556 11.759 59.8709 12.0911 60.712 12.0911C61.1358 12.0911 61.5661 12.0067 61.983 11.8341C63.2271 11.319 64 10.1624 64 8.81575V3.28425C64 1.47337 62.5266 0 60.7158 0ZM53.3256 12.313C53.1068 12.5317 52.8159 12.6524 52.5064 12.6524C52.1969 12.6524 51.9059 12.5319 51.6871 12.313C51.2354 11.8612 51.2354 11.1261 51.6871 10.6744L54.829 7.5325L56.4676 9.17113L53.3256 12.313ZM62.125 8.81575C62.125 9.39825 61.8037 9.87913 61.2655 10.102C60.7274 10.3249 60.1601 10.2121 59.7482 9.80013L54.1997 4.25163C53.7879 3.83975 53.675 3.2725 53.8979 2.73438C54.1208 2.19613 54.6016 1.87487 55.1841 1.87487H60.7156C61.4928 1.875 62.125 2.50725 62.125 3.28425V8.81575ZM17.0315 4.78412H46.9684C47.4861 4.78412 47.9059 4.36438 47.9059 3.84663C47.9059 3.32888 47.4861 2.90913 46.9684 2.90913H17.0315C16.5138 2.90913 16.094 3.32888 16.094 3.84663C16.094 4.36438 16.5138 4.78412 17.0315 4.78412ZM46.9685 59.216H17.0316C16.5139 59.216 16.0941 59.6357 16.0941 60.1535C16.0941 60.6712 16.5139 61.091 17.0316 61.091H46.9685C47.4862 61.091 47.906 60.6712 47.906 60.1535C47.906 59.6356 47.4862 59.216 46.9685 59.216ZM61.091 46.9685V17.0315C61.091 16.5138 60.6712 16.094 60.1535 16.094C59.6357 16.094 59.216 16.5138 59.216 17.0315V46.9684C59.216 47.4861 59.6357 47.9059 60.1535 47.9059C60.6712 47.906 61.091 47.4862 61.091 46.9685ZM15.5206 43.5029L14.4896 42.9076C14.2159 42.7496 14.1864 42.4878 14.1864 42.3825V24.133L28.6641 32.4916C29.4135 32.9244 30.2293 33.1975 31.0626 33.315V52.181C30.5554 52.0805 30.0611 51.8979 29.6016 51.6326L19.4099 45.7484C18.9615 45.4893 18.3881 45.6431 18.1292 46.0915C17.8704 46.5399 18.024 47.1132 18.4724 47.3721L28.6641 53.2564C29.6619 53.8324 30.7769 54.1266 31.8955 54.144C31.9299 54.1479 31.9648 54.1501 32.0001 54.1501C32.0355 54.1501 32.0704 54.1478 32.1048 54.144C33.2233 54.1266 34.3384 53.8324 35.3361 53.2564L50.4481 44.5315C51.2251 44.0829 51.689 43.2795 51.689 42.3824V21.6176L51.6889 21.6144C51.6877 20.7185 51.2243 19.9165 50.4482 19.4685L40.0526 13.4666C39.6042 13.2076 39.0309 13.3614 38.772 13.8097C38.5131 14.2581 38.6667 14.8315 39.1151 15.0904L49.5107 21.0923C49.7845 21.2504 49.814 21.5123 49.814 21.6175C49.8141 21.7229 49.7845 21.9849 49.5107 22.1429L34.3988 30.8678C32.9193 31.7219 31.0812 31.722 29.6017 30.8678L14.4897 22.1429C14.216 21.9848 14.1864 21.7229 14.1865 21.6175C14.1865 21.5123 14.216 21.2503 14.4897 21.0923L29.6015 12.3675C31.081 11.5134 32.919 11.5134 34.3985 12.3675L35.1743 12.8154C35.6225 13.0743 36.196 12.9207 36.455 12.4722C36.7139 12.0239 36.5602 11.4505 36.1119 11.1915L35.336 10.7436C33.2782 9.55562 30.7218 9.55562 28.664 10.7436L13.552 19.4685C12.7751 19.917 12.3112 20.7204 12.3112 21.6175V42.3825C12.3112 43.2795 12.7751 44.0829 13.552 44.5314L14.583 45.1266C14.7306 45.2119 14.8919 45.2524 15.0509 45.2524C15.3749 45.2524 15.69 45.0843 15.8636 44.7835C16.1226 44.3353 15.969 43.7619 15.5206 43.5029ZM32.9375 33.3149C33.771 33.1973 34.5868 32.9243 35.336 32.4916L49.8138 24.1329V42.3823C49.8138 42.4875 49.7843 42.7495 49.5104 42.9076L34.3984 51.6325C33.9389 51.8978 33.4446 52.0804 32.9374 52.1809L32.9375 33.3149ZM11.4936 49.4726C10.6832 49.4726 9.92138 49.7882 9.3485 50.3613L6.20675 53.5031L5.57762 52.874C4.62537 51.9217 3.261 51.6503 2.017 52.1656C0.772875 52.681 0 53.8376 0 55.1842V60.7158C0 62.5266 1.47337 64 3.28425 64H8.81575C10.1624 64 11.319 63.2271 11.8343 61.983C12.3496 60.739 12.0783 59.3746 11.126 58.4225L10.4969 57.7934L13.6386 54.6515C14.8214 53.4688 14.8214 51.5441 13.6386 50.3614C13.0659 49.7882 12.304 49.4726 11.4936 49.4726ZM10.102 61.2655C9.87913 61.8037 9.39825 62.125 8.81575 62.125H3.28425C2.50725 62.125 1.875 61.4928 1.875 60.7158V55.1842C1.875 54.6017 2.19625 54.1209 2.73438 53.898C2.9165 53.8226 3.10175 53.7856 3.28325 53.7856C3.6385 53.7856 3.97913 53.9272 4.25175 54.1997L9.80025 59.7482C10.2121 60.1601 10.325 60.7274 10.102 61.2655ZM12.3129 53.3256L9.17113 56.4675L7.5325 54.8289L10.6744 51.687C10.8932 51.4681 11.1841 51.3476 11.4936 51.3476C11.8031 51.3476 12.094 51.4681 12.3129 51.687C12.7646 52.1389 12.7646 52.8739 12.3129 53.3256Z" fill="#1736F3"/>
</g>
<defs>
<clipPath id="clip0">
<rect width="64" height="64" fill="white"/>
</clipPath>
</defs>
</svg>
