<svg width="64" height="64" viewBox="0 0 64 64" fill="none" xmlns="http://www.w3.org/2000/svg">
<g clip-path="url(#clip0)">
<path d="M63.8766 34.9564C63.302 29.1765 60.7198 23.7276 56.6055 19.6131C53.0895 16.0972 48.7859 13.8378 44.2576 12.8331V9.65709C46.1071 9.19696 47.4819 7.52281 47.4819 5.5329C47.4819 3.18937 45.5753 1.28284 43.2318 1.28284H34.2317C31.8881 1.28284 29.9816 3.18937 29.9816 5.5329C29.9816 7.52268 31.3564 9.19684 33.2058 9.65709V12.842C28.6913 13.8509 24.402 16.1072 20.896 19.6132C20.1287 20.3805 19.4212 21.1854 18.7735 22.0219C18.7422 22.0195 18.7108 22.0172 18.6788 22.0172H9.77103C9.08077 22.0172 8.52101 22.5768 8.52101 23.2672C8.52101 23.9576 9.08077 24.5172 9.77103 24.5172H17.0726C16.1561 26.0516 15.4171 27.663 14.8546 29.3218H1.25002C0.559759 29.3218 0 29.8814 0 30.5718C0 31.2622 0.559759 31.8218 1.25002 31.8218H14.1482C13.788 33.4032 13.5812 35.0126 13.5278 36.6265H8.00012C7.30986 36.6265 6.75011 37.1861 6.75011 37.8765C6.75011 38.5669 7.30986 39.1266 8.00012 39.1266H13.5677C13.6732 40.7446 13.9333 42.3541 14.3482 43.9313H6.2501C5.55984 43.9313 5.00008 44.4909 5.00008 45.1813C5.00008 45.8717 5.55984 46.4313 6.2501 46.4313H15.146C16.3723 49.6752 18.2887 52.7156 20.896 55.3229C25.0143 59.4412 30.4688 62.024 36.2547 62.5957C37.0805 62.6772 37.9068 62.7175 38.7321 62.7175C43.6099 62.7175 48.4258 61.3059 52.5121 58.6449C53.0906 58.2681 53.2542 57.4937 52.8774 56.9152C52.5007 56.3367 51.7263 56.1731 51.1478 56.5498C42.203 62.3745 30.2237 61.1151 22.6637 53.5552C13.7933 44.6848 13.7933 30.2517 22.6637 21.3812C31.534 12.5109 45.9671 12.5109 54.8376 21.3812C62.3876 28.9313 63.6539 40.9003 57.8484 49.8407C57.4724 50.4197 57.637 51.194 58.2159 51.5699C58.7952 51.9459 59.5692 51.7812 59.9451 51.2022C63.0469 46.4253 64.4431 40.6558 63.8766 34.9564ZM32.4816 5.53303C32.4816 4.56801 33.2666 3.783 34.2317 3.783H43.2318C44.1968 3.783 44.9818 4.56801 44.9818 5.53303C44.9818 6.49804 44.1968 7.28306 43.2318 7.28306H43.0075H34.4558H34.2317C33.2666 7.28306 32.4816 6.49792 32.4816 5.53303ZM35.7058 12.4123V9.78309H41.7575V12.4078C39.748 12.1688 37.715 12.1703 35.7058 12.4123Z" fill="#ABDF3D"/>
<path d="M55.7222 53.1885C55.3922 53.1885 55.0709 53.3222 54.8385 53.5547C54.6048 53.7872 54.4722 54.1097 54.4722 54.4385C54.4722 54.7672 54.6048 55.0897 54.8385 55.3222C55.0709 55.556 55.3923 55.6885 55.7222 55.6885C56.0509 55.6885 56.3722 55.556 56.6059 55.3222C56.8384 55.0897 56.9722 54.7672 56.9722 54.4385C56.9722 54.1097 56.8385 53.7872 56.6059 53.5547C56.3722 53.3222 56.0508 53.1885 55.7222 53.1885Z" fill="#ABDF3D"/>
<path d="M38.7508 18.0764C28.0584 18.0764 19.3594 26.7753 19.3594 37.4678C19.3594 48.1604 28.0584 56.8593 38.7508 56.8593C49.4432 56.8593 58.1422 48.1604 58.1422 37.4678C58.1422 26.7753 49.4432 18.0764 38.7508 18.0764ZM38.7508 54.3592C29.4368 54.3592 21.8594 46.7817 21.8594 37.4678C21.8594 28.154 29.4368 20.5765 38.7508 20.5765C48.0648 20.5765 55.6422 28.154 55.6422 37.4678C55.6422 46.7817 48.0648 54.3592 38.7508 54.3592Z" fill="#ABDF3D"/>
<path d="M46.6579 27.7931L40.4666 33.9843C39.9488 33.7283 39.3665 33.5837 38.7508 33.5837C38.1351 33.5837 37.5528 33.7283 37.035 33.9843L34.2641 31.2134C33.7759 30.7253 32.9846 30.7253 32.4962 31.2134C32.0081 31.7015 32.0081 32.493 32.4962 32.9812L35.2671 35.7521C35.011 36.2699 34.8665 36.8522 34.8665 37.4679C34.8665 39.6097 36.6089 41.3522 38.7508 41.3522C40.8927 41.3522 42.6351 39.6097 42.6351 37.4679C42.6351 36.8522 42.4905 36.2699 42.2345 35.7521L48.2441 29.7425L48.4257 29.5609C48.9138 29.0727 48.9138 28.2812 48.4257 27.7931C47.9376 27.305 47.1463 27.305 46.6579 27.7931ZM38.7508 38.8523C37.9876 38.8523 37.3665 38.2313 37.3665 37.468C37.3665 36.7047 37.9876 36.0837 38.7508 36.0837C39.5141 36.0837 40.1351 36.7047 40.1351 37.468C40.1351 38.2313 39.5141 38.8523 38.7508 38.8523Z" fill="#ABDF3D"/>
<path d="M52.1156 36.2332H50.9575C50.2673 36.2332 49.7075 36.7928 49.7075 37.4832C49.7075 38.1735 50.2673 38.7332 50.9575 38.7332H52.1156C52.8059 38.7332 53.3656 38.1735 53.3656 37.4832C53.3656 36.7928 52.8059 36.2332 52.1156 36.2332Z" fill="#ABDF3D"/>
<path d="M26.5437 36.2025H25.3857C24.6955 36.2025 24.1357 36.7621 24.1357 37.4525C24.1357 38.1429 24.6955 38.7025 25.3857 38.7025H26.5437C27.234 38.7025 27.7937 38.1429 27.7937 37.4525C27.7937 36.7621 27.234 36.2025 26.5437 36.2025Z" fill="#ABDF3D"/>
<path d="M38.7659 26.5109C39.4561 26.5109 40.0159 25.9513 40.0159 25.2609V24.1029C40.0159 23.4125 39.4561 22.8529 38.7659 22.8529C38.0756 22.8529 37.5159 23.4125 37.5159 24.1029V25.2609C37.5159 25.9513 38.0756 26.5109 38.7659 26.5109Z" fill="#ABDF3D"/>
<path d="M38.7356 48.425C38.0453 48.425 37.4856 48.9847 37.4856 49.675V50.833C37.4856 51.5234 38.0453 52.083 38.7356 52.083C39.4258 52.083 39.9856 51.5234 39.9856 50.833V49.675C39.9856 48.9847 39.4258 48.425 38.7356 48.425Z" fill="#ABDF3D"/>
<path d="M1.25 43.9307C0.92125 43.9307 0.59875 44.0644 0.36625 44.2969C0.13375 44.5294 0 44.8519 0 45.1807C0 45.5107 0.133625 45.8319 0.36625 46.0644C0.598875 46.2969 0.92125 46.4307 1.25 46.4307C1.57875 46.4307 1.90125 46.2969 2.13363 46.0644C2.36613 45.8319 2.5 45.5094 2.5 45.1807C2.5 44.8519 2.36625 44.5294 2.13363 44.2969C1.90125 44.0644 1.57875 43.9307 1.25 43.9307Z" fill="#ABDF3D"/>
</g>
<defs>
<clipPath id="clip0">
<rect width="64" height="64" fill="white"/>
</clipPath>
</defs>
</svg>
